<svg width="289" height="106" viewBox="0 0 289 106" fill="none" xmlns="http://www.w3.org/2000/svg">
<path d="M59.1729 38.9893H102.605C105.389 43.042 106.78 47.9736 106.78 53.7842C106.78 59.5459 105.584 64.2334 103.191 67.8467H100.188V89.8193C90.5693 98.1689 77.874 102.344 62.1025 102.344C52.4834 102.344 43.9385 100.635 36.4678 97.2168C28.3135 93.5547 21.9902 88.208 17.498 81.1768C12.5664 73.4619 10.1006 63.9893 10.1006 52.7588C10.1006 36.792 14.8857 24.4385 24.4561 15.6982C33.5381 7.34863 45.8428 3.17383 61.3701 3.17383C69.0361 3.17383 76.2627 4.32129 83.0498 6.61621C89.8857 8.91113 95.2812 11.7676 99.2363 15.1855C99.2363 18.1152 98.8701 21.7041 98.1377 25.9521C97.4541 30.2002 96.5752 33.4473 95.501 35.6934H56.9023C55.3398 37.3535 53.8506 39.7461 52.4346 42.8711C51.0674 45.9961 50.3838 49.585 50.3838 53.6377C50.3838 59.2041 51.7754 63.5742 54.5586 66.748C57 69.6289 60.125 71.0693 63.9336 71.0693C65.4961 71.0693 66.2773 70.5322 66.2773 69.458V67.7734H65.4717C62.249 67.7734 59.5635 66.5283 57.415 64.0381C55.3154 61.499 54.2656 57.8857 54.2656 53.1982C54.2656 47.3389 55.9014 42.6025 59.1729 38.9893Z" fill="#419D78"/>
<path d="M126.702 100.073C121.282 100.073 117.083 98.6328 114.104 95.752C111.175 92.8711 109.71 88.5254 109.71 82.7148V11.084C112.298 8.88672 115.447 7.20215 119.158 6.03027C122.918 4.80957 126.8 4.19922 130.804 4.19922C136.712 4.19922 141.717 5.66406 145.818 8.59375C150.262 11.9141 152.483 16.5039 152.483 22.3633V62.4268C149.749 62.6709 147.063 63.4521 144.427 64.7705C141.79 66.04 140.472 67.3584 140.472 68.7256C140.472 69.5557 140.936 70.2637 141.863 70.8496C146.697 66.7969 153.875 64.7705 163.396 64.7705H180.755C183.978 70.4346 185.589 76.2207 185.589 82.1289C185.589 85.0586 185.076 88.3057 184.051 91.8701C183.025 95.4346 181.658 98.1689 179.949 100.073H126.702Z" fill="#E0A458"/>
<path d="M278.094 22.3633V95.166C272.625 99.2676 265.618 101.318 257.073 101.318C250.481 101.318 245.257 99.9756 241.399 97.29C237.347 94.5557 235.32 90.6006 235.32 85.4248V70.9229H240.521C242.522 70.9229 243.768 70.6787 244.256 70.1904C244.793 69.6533 245.062 68.7988 245.062 67.627H222.063C222.063 68.7988 222.283 69.6533 222.723 70.1904C223.162 70.6787 224.212 70.9229 225.872 70.9229H231.438V95.166C227.679 97.6074 224.114 99.2432 220.745 100.073C217.376 100.903 213.934 101.318 210.418 101.318C203.826 101.318 198.602 99.9756 194.744 97.29C190.691 94.5557 188.665 90.6006 188.665 85.4248V12.5488C191.204 9.86328 194.329 7.8125 198.04 6.39648C201.8 4.93164 205.706 4.19922 209.759 4.19922C215.667 4.19922 220.672 5.66406 224.773 8.59375C229.217 11.9141 231.438 16.5039 231.438 22.3633V35.4004H240.74C240.74 34.1309 240.496 33.2764 240.008 32.8369C239.568 32.3486 238.836 32.1045 237.811 32.1045H235.32V12.5488C237.859 9.86328 240.984 7.8125 244.695 6.39648C248.455 4.93164 252.361 4.19922 256.414 4.19922C262.322 4.19922 267.327 5.66406 271.429 8.59375C275.872 11.9141 278.094 16.5039 278.094 22.3633Z" fill="#F9F9F9"/>
</svg>
